<svg version="1.1" id="Layer_1" xmlns="http://www.w3.org/2000/svg" xmlns:xlink="http://www.w3.org/1999/xlink" x="0px" y="0px"
	 width="100%" viewBox="0 0 1080 1080" enable-background="new 0 0 1080 1080" xml:space="preserve">
<path fill="#FFFFFF" opacity="1.000000" stroke="none" 
	d="
M605.000000,1081.000000 
	C404.856384,1081.000000 205.212753,1080.989014 5.569163,1081.085693 
	C1.948285,1081.087402 0.895119,1080.478271 0.896341,1076.570190 
	C1.007984,719.611389 1.009679,362.652557 0.882420,5.693789 
	C0.880932,1.521176 1.867744,0.896071 5.805188,0.897293 
	C362.597321,1.007972 719.389465,1.007772 1076.181641,0.899176 
	C1080.091553,0.897986 1081.120850,1.479758 1081.119263,5.680573 
	C1080.990234,362.472687 1080.989258,719.264832 1081.122803,1076.057007 
	C1081.124512,1080.439331 1080.024536,1081.103760 1075.944092,1081.100708 
	C919.129456,1080.981934 762.314758,1081.000000 605.000000,1081.000000 
z"/>
<path fill="#030303" opacity="1.000000" stroke="none" 
	d="
M479.381836,826.327026 
	C483.197327,821.114563 485.141785,813.293579 490.332123,811.724060 
	C495.211426,810.248535 501.634521,814.468201 507.499786,815.474670 
	C512.128601,816.269043 512.939209,818.504822 513.143250,822.815186 
	C514.569397,852.935303 516.252441,883.044495 518.091736,913.142578 
	C518.368652,917.673828 517.272705,918.806824 513.164490,917.004761 
	C512.258728,916.607544 511.261444,916.415771 510.301849,916.144958 
	C505.682281,914.841064 499.437103,914.916931 496.867523,911.880737 
	C493.910797,908.386963 495.380676,902.035034 495.130157,896.916199 
	C494.299438,879.942322 493.580933,862.962952 492.812561,845.985962 
	C492.769379,845.031250 492.665039,844.079285 492.565186,842.824951 
	C490.344727,843.405762 489.937164,845.179260 489.114716,846.409302 
	C477.741791,863.418701 466.356201,880.420898 455.181885,897.560608 
	C453.492432,900.151917 451.916016,900.726135 449.158875,899.861023 
	C443.951385,898.227234 436.651947,898.354675 433.982086,894.869507 
	C431.104797,891.113831 432.401093,884.062988 432.116180,878.437622 
	C431.281799,861.964539 430.581146,845.484680 429.775604,829.010071 
	C429.715485,827.780334 430.200104,826.336670 428.618774,825.087769 
	C424.486816,831.344299 420.374878,837.542419 416.291565,843.759399 
	C408.255341,855.994812 400.162964,868.194641 392.269135,880.521423 
	C390.696381,882.977478 389.311371,883.996155 386.341309,882.984131 
	C381.945526,881.486450 377.437012,880.258179 372.901154,879.256287 
	C370.270691,878.675293 369.409546,878.147034 371.149200,875.500793 
	C388.601746,848.953430 405.986816,822.361511 423.303497,795.725281 
	C424.574860,793.769653 425.921295,793.535706 427.872314,794.102478 
	C430.744080,794.936523 433.640411,795.685791 436.523529,796.481018 
	C448.126282,799.681458 448.162445,799.680969 448.782532,811.919983 
	C449.600250,828.060181 450.331970,844.204651 451.161255,860.344238 
	C451.268158,862.424683 450.868256,864.624756 452.322723,867.082825 
	C461.391174,853.407654 470.275818,840.009705 479.381836,826.327026 
z"/>
<path fill="#030303" opacity="1.000000" stroke="none" 
	d="
M249.568802,560.406860 
	C261.246399,569.690186 266.939301,582.002747 269.851746,595.867126 
	C272.516602,608.552917 275.033661,621.270081 277.761810,633.941956 
	C278.363159,636.735046 277.938293,638.007446 274.843689,638.634888 
	C245.527405,644.579285 216.239426,650.663635 186.953781,656.758118 
	C185.014099,657.161743 183.830490,657.033752 183.439270,654.748169 
	C180.385925,636.910339 174.374802,619.530334 173.851440,601.328552 
	C172.843384,566.270325 204.983704,542.547363 237.457031,553.898987 
	C241.732025,555.393372 245.642166,557.532898 249.568802,560.406860 
z"/>
<path fill="#030303" opacity="1.000000" stroke="none" 
	d="
M321.647461,707.554138 
	C323.387054,712.508667 324.026398,717.216125 322.924500,722.306335 
	C330.131500,718.469360 330.153076,718.453308 334.921631,724.879089 
	C337.195099,727.942627 341.578308,731.576843 341.020874,734.056885 
	C340.344147,737.067688 335.527802,739.222107 332.386414,741.593323 
	C308.490356,759.630493 284.565948,777.630127 260.418121,795.816406 
	C256.710602,790.910828 253.240601,786.033081 249.447876,781.420837 
	C247.521942,779.078674 248.192490,777.995483 250.333755,776.426880 
	C258.638519,770.342957 266.814392,764.083008 275.724365,757.371826 
	C267.915649,755.571777 261.802734,752.108337 257.018646,746.397522 
	C242.098694,728.587463 245.512985,705.164246 265.132690,691.265686 
	C284.148987,677.794739 307.574402,682.764526 319.230438,702.762634 
	C320.064209,704.193054 320.728302,705.722290 321.647461,707.554138 
z"/>
<path fill="#030303" opacity="1.000000" stroke="none" 
	d="
M494.971619,257.972290 
	C482.820679,268.915192 469.542725,272.432739 453.623444,265.671600 
	C456.075104,275.039490 458.191162,284.024933 460.836395,292.851776 
	C462.154236,297.249115 461.486237,299.354034 456.629089,300.025970 
	C452.708679,300.568329 448.849426,301.773407 445.063843,302.996460 
	C442.286652,303.893738 441.096649,303.411285 440.320374,300.369904 
	C432.558563,269.960785 424.682861,239.580429 416.688293,209.231750 
	C416.054382,206.825363 416.408875,206.063721 418.740784,205.538055 
	C422.948730,204.589554 427.172791,203.585876 431.238281,202.169464 
	C434.959320,200.873047 436.680115,201.911026 437.024109,205.731735 
	C437.093414,206.501251 437.465912,207.243454 437.941833,208.787125 
	C444.578705,198.018341 454.313110,193.859131 465.699341,193.021378 
	C475.616302,192.291748 484.405212,195.256790 491.859314,201.945358 
	C504.571991,213.352417 511.925720,240.382690 494.971619,257.972290 
z"/>
<path fill="#030303" opacity="1.000000" stroke="none" 
	d="
M860.369507,630.401611 
	C858.790161,632.983337 857.522522,635.332703 856.017761,637.518677 
	C850.122498,646.082520 842.823059,652.129456 831.530457,650.465637 
	C819.119446,648.636963 810.798645,641.409546 808.419128,629.401550 
	C803.842407,606.305542 811.825195,586.601501 827.097046,569.404419 
	C828.704102,567.594849 829.992493,567.907715 831.674011,569.347534 
	C834.580322,571.835938 837.554199,574.277649 840.707397,576.435486 
	C843.281677,578.197144 843.418823,579.238464 841.052795,581.587036 
	C832.685791,589.892029 827.531494,600.006409 825.470764,611.647705 
	C824.826050,615.289795 824.564636,618.929871 826.039490,622.462402 
	C828.534119,628.437622 834.521912,629.849182 839.376648,625.581848 
	C841.786072,623.463989 843.463928,620.775391 844.998108,617.997925 
	C848.692566,611.310059 852.153076,604.481262 856.107788,597.951538 
	C863.774536,585.292603 873.439819,580.530396 884.954102,583.308167 
	C897.536133,586.343384 906.049622,596.424194 906.838745,610.405762 
	C907.834900,628.055420 902.375305,643.794495 891.425049,657.683533 
	C889.468079,660.165710 887.964905,660.520996 885.444092,658.355530 
	C882.049927,655.439880 876.521057,653.613525 875.201782,650.087402 
	C873.985901,646.837708 879.493713,643.549133 881.599487,639.954651 
	C885.178101,633.846130 887.624451,627.392273 888.689087,620.405762 
	C889.174500,617.220459 889.050171,614.057373 887.795593,611.067993 
	C884.891846,604.149414 877.362305,603.034729 872.706177,608.930664 
	C867.622986,615.367249 864.640808,623.051392 860.369507,630.401611 
z"/>
<path fill="#030303" opacity="1.000000" stroke="none" 
	d="
M670.529846,786.191772 
	C681.938843,816.680542 692.968201,846.942017 704.236694,877.114197 
	C705.562927,880.665344 705.036255,882.024109 701.477417,883.029907 
	C697.334595,884.200684 693.236023,885.675964 689.323853,887.467957 
	C686.195068,888.901123 685.116333,887.920349 684.060303,884.976990 
	C678.510498,869.507202 672.771729,854.105225 667.093872,838.681396 
	C666.693848,837.594604 666.257019,836.521362 665.537903,834.671753 
	C660.376038,845.072937 655.132874,854.752197 650.744568,864.804565 
	C648.009033,871.070557 644.218262,875.065247 637.470337,876.688843 
	C632.693604,877.838257 628.151001,879.960388 623.427307,881.676147 
	C622.558044,879.854858 623.902649,878.696350 624.447754,877.470032 
	C629.100769,867.002136 633.749329,856.528931 638.656494,846.179321 
	C640.130615,843.070251 640.048584,841.534912 636.747864,839.592590 
	C623.997559,832.089661 611.488708,824.176208 598.895996,816.405884 
	C597.509216,815.550171 596.161560,814.631165 594.367371,813.462341 
	C602.072449,810.595337 609.236145,808.015381 616.324341,805.242493 
	C618.587891,804.357056 620.154602,805.392822 621.858521,806.417786 
	C630.404358,811.558228 638.987671,816.638184 647.467102,821.885925 
	C649.781799,823.318298 650.503113,823.010071 652.210388,820.626770 
	C657.797852,812.827209 655.763062,805.425659 652.073303,797.941589 
	C650.217834,794.177979 650.588135,792.006348 655.165222,790.936584 
	C660.306824,789.734985 664.950500,786.865051 670.529846,786.191772 
z"/>
<path fill="#030303" opacity="1.000000" stroke="none" 
	d="
M805.269897,271.719055 
	C817.640015,285.254852 829.707764,298.590302 841.958496,311.755432 
	C844.215820,314.181305 844.181458,315.516724 841.606140,317.531586 
	C838.076782,320.292847 834.919556,325.708038 831.482727,325.806824 
	C827.929504,325.908997 825.246399,320.028534 822.201965,316.753784 
	C814.605896,308.583038 807.050598,300.371277 799.649414,292.024719 
	C797.754150,289.887238 796.630554,289.813934 794.596069,291.815552 
	C790.207214,296.133423 785.654724,300.302155 780.956848,304.281250 
	C778.733765,306.164246 778.873596,307.295258 780.783630,309.335449 
	C789.318237,318.451691 797.625427,327.780792 806.142883,336.913391 
	C807.976562,338.879547 808.378113,340.080017 806.030334,341.953827 
	C802.395874,344.854523 799.182068,350.356079 795.527161,350.586395 
	C791.711548,350.826904 789.046570,344.683533 785.887268,341.335388 
	C779.717896,334.797302 773.641174,328.162872 767.765808,321.361237 
	C765.684875,318.952301 764.453308,319.213379 762.338623,321.223907 
	C755.703613,327.531860 748.809387,333.566986 742.164062,339.864410 
	C740.118591,341.802826 738.878174,342.473511 736.766235,339.819702 
	C733.559326,335.789825 729.927490,332.088867 726.358582,328.360748 
	C724.844604,326.779236 724.373169,325.719055 726.304443,323.965118 
	C749.342590,303.042542 772.308594,282.040558 795.416809,260.946716 
	C798.748352,264.589996 801.889404,268.025024 805.269897,271.719055 
z"/>
<path fill="#040404" opacity="1.000000" stroke="none" 
	d="
M572.594116,229.187073 
	C559.807739,228.852783 547.487061,228.603333 535.173584,228.156052 
	C532.017883,228.041428 531.377563,228.807755 532.644714,231.755402 
	C535.235535,237.782181 539.937683,241.259552 546.025513,242.689972 
	C554.084656,244.583542 562.000122,244.024155 568.821106,238.749268 
	C571.097534,236.988892 572.099243,237.743927 573.511047,239.534409 
	C575.261047,241.753769 577.036560,244.014572 579.134094,245.883682 
	C582.248840,248.659164 582.154053,250.636475 578.640747,253.035889 
	C563.393677,263.448883 547.306946,263.222931 531.203125,256.095856 
	C517.059021,249.836136 510.228058,238.077866 510.113586,222.715942 
	C509.946045,200.221893 528.178528,183.247452 550.887268,184.422211 
	C574.880310,185.663391 590.168457,202.981277 588.080750,226.313263 
	C587.813293,229.302368 586.677979,229.893250 584.040894,229.667999 
	C580.394653,229.356552 576.723145,229.340775 572.594116,229.187073 
z"/>
<path fill="#030303" opacity="1.000000" stroke="none" 
	d="
M351.903931,781.124695 
	C357.778442,785.521301 363.359558,789.716370 369.392731,794.251221 
	C372.328339,788.132324 371.693085,782.449219 368.349396,777.244019 
	C363.197662,769.224304 355.781281,764.363953 346.072357,764.217163 
	C342.571075,764.164246 341.926453,762.965942 341.882263,759.971008 
	C341.835754,756.820862 341.368561,753.668091 340.946198,750.535217 
	C340.642059,748.279419 341.310059,747.320679 343.734680,746.987183 
	C359.699524,744.791321 380.965576,758.599487 388.182373,776.000671 
	C394.731506,791.791931 389.502991,809.582458 375.142517,820.369995 
	C359.389954,832.203247 336.993805,829.234436 322.466583,813.387390 
	C309.117004,798.825012 309.210968,777.923035 322.549713,763.093811 
	C324.238831,761.215942 325.242096,760.965454 327.306885,762.570679 
	C335.320496,768.800842 343.495575,774.823364 351.903931,781.124695 
z"/>
<path fill="#030303" opacity="1.000000" stroke="none" 
	d="
M358.564331,302.503296 
	C334.251770,287.875763 331.723694,257.064972 353.253845,239.232834 
	C363.240295,230.961670 374.668945,226.456116 387.890198,228.609131 
	C402.990509,231.068100 412.660675,240.332993 417.587769,254.327728 
	C422.427460,268.074310 419.126373,280.599457 409.593323,291.405426 
	C396.408325,306.350922 376.407776,310.716248 358.564331,302.503296 
z"/>
<path fill="#040404" opacity="1.000000" stroke="none" 
	d="
M200.262878,476.277588 
	C209.841095,466.325134 221.401642,463.677032 234.338013,465.263702 
	C237.296371,465.626526 238.451019,466.756165 238.067169,470.033203 
	C236.226807,485.744781 234.599487,501.482056 233.002182,517.220947 
	C232.507004,522.100159 233.073059,522.400391 237.683624,520.459717 
	C248.431915,515.935547 253.430405,499.337494 246.924866,487.609680 
	C244.619934,483.454498 245.370224,481.578003 248.966202,479.596375 
	C250.121201,478.959930 251.113739,478.028748 252.181091,477.233124 
	C258.586853,472.457916 258.586884,472.458008 262.403473,479.337189 
	C274.264130,500.715271 263.027496,533.184814 241.096390,540.906372 
	C225.717987,546.320801 207.711884,541.088867 197.929871,528.363586 
	C187.712692,515.072205 187.423660,494.391052 197.276596,480.094238 
	C198.125092,478.863068 199.104370,477.722015 200.262878,476.277588 
z"/>
<path fill="#030303" opacity="1.000000" stroke="none" 
	d="
M284.767120,364.902588 
	C283.847229,366.805786 281.282684,367.985687 282.234802,369.735962 
	C283.050995,371.236328 285.488525,371.058319 287.329468,371.150574 
	C299.068878,371.738739 310.940796,359.888641 310.907471,346.951691 
	C310.896881,342.836548 312.011322,341.359344 315.920380,341.415192 
	C317.904602,341.443512 320.008698,341.403198 321.860657,340.793060 
	C327.151306,339.049988 328.277649,341.337585 328.392212,346.201782 
	C328.776855,362.533173 315.537750,381.804565 298.962524,388.486359 
	C284.386566,394.362213 268.061859,390.112640 256.926849,377.543823 
	C243.407028,362.283112 245.114532,339.163757 260.914490,323.551544 
	C275.217346,309.418732 296.924927,308.974426 311.934082,322.339569 
	C313.935760,324.122040 313.748383,325.160522 312.324188,327.093018 
	C303.144897,339.548523 294.086121,352.092926 284.767120,364.902588 
z"/>
<path fill="#030303" opacity="1.000000" stroke="none" 
	d="
M787.263855,743.280884 
	C785.976318,744.838379 784.926758,746.129578 783.863708,747.409668 
	C780.109680,751.930420 780.669983,753.599792 786.515503,754.932617 
	C791.480164,756.064575 795.702820,754.470947 799.328430,751.092102 
	C805.368774,745.463074 809.188965,738.559509 810.461548,730.418640 
	C810.910767,727.545349 811.850037,726.835571 814.518677,727.857483 
	C816.051575,728.444519 817.747498,728.607666 819.371521,728.954712 
	C828.257812,730.854309 828.358032,730.885620 825.624939,739.422852 
	C821.775024,751.448730 814.984436,761.566772 805.076294,769.422424 
	C794.267090,777.992554 782.212830,778.832275 770.915039,771.048706 
	C758.166016,762.265259 746.977295,751.463501 734.930054,741.760315 
	C733.239563,740.398743 733.703003,739.431458 734.839844,738.130371 
	C736.700623,736.000610 738.466309,733.787720 740.271118,731.609131 
	C745.446716,725.361877 745.446533,725.361694 752.168762,729.062744 
	C750.795105,715.212585 758.182983,706.018005 768.612976,698.875549 
	C777.574585,692.738770 787.691284,693.655579 795.278992,700.440735 
	C802.599182,706.986755 804.102844,715.971069 799.519165,725.937073 
	C796.562927,732.364746 792.000000,737.668213 787.263855,743.280884 
z"/>
<path fill="#030303" opacity="1.000000" stroke="none" 
	d="
M819.945923,414.996765 
	C824.450317,414.792633 828.093567,413.208435 831.684509,411.434021 
	C841.211914,406.726105 850.788818,402.115875 860.253357,397.285217 
	C862.716187,396.028229 863.869141,396.290924 865.011353,398.888580 
	C867.342834,404.191132 872.766663,409.978607 871.762939,414.395020 
	C870.715454,419.004150 862.476990,420.188721 857.350586,422.771393 
	C841.639587,430.686493 825.757446,438.261780 810.045044,446.174225 
	C807.164062,447.624969 805.844788,447.457489 804.622009,444.363708 
	C803.223206,440.824432 801.593018,437.306976 799.545227,434.112152 
	C797.221436,430.486786 797.982666,428.505737 801.922241,427.302277 
	C802.672974,427.072906 803.334839,426.552826 804.766541,425.766754 
	C792.226990,421.038940 785.579773,411.999298 782.898071,399.842072 
	C780.384155,388.445221 784.090698,379.183868 793.075928,372.010864 
	C795.653076,369.953552 798.524780,368.177368 801.470520,366.685211 
	C813.170776,360.758514 824.977600,355.042145 836.684937,349.129150 
	C838.868408,348.026306 840.024780,347.969025 841.133606,350.510071 
	C843.122314,355.067566 845.358154,359.534149 847.771423,363.882996 
	C849.171997,366.406952 848.569092,367.470245 846.088013,368.651245 
	C836.345032,373.288818 826.701233,378.134979 817.024048,382.910767 
	C815.387024,383.718689 813.721313,384.482910 812.147339,385.401855 
	C804.949219,389.604340 802.010193,395.009033 803.500366,401.170044 
	C805.537659,409.592499 811.098389,414.392181 819.945923,414.996765 
z"/>
<path fill="#030303" opacity="1.000000" stroke="none" 
	d="
M758.005310,806.916870 
	C750.724365,823.171448 738.787537,832.921936 721.358154,835.436401 
	C716.123718,836.191528 711.140076,834.912537 706.299744,832.878845 
	C704.091797,831.951111 703.612488,830.851501 704.918213,828.770508 
	C705.971924,827.091187 706.710388,825.215088 707.603516,823.433655 
	C708.940918,820.766174 709.712708,817.443665 711.794678,815.622437 
	C713.995117,813.697632 716.975403,816.434937 719.725403,816.633118 
	C728.516113,817.266846 737.572144,810.245728 739.558716,800.975708 
	C741.609192,791.406860 733.496399,778.928162 723.554993,776.359680 
	C714.169067,773.934692 703.500488,780.014038 700.678772,789.392700 
	C700.583008,789.711182 700.503174,790.048584 700.335510,790.329102 
	C698.941467,792.662964 701.902222,796.384888 698.418823,797.773071 
	C696.026917,798.726135 693.183289,798.549683 690.539978,798.864502 
	C689.879089,798.943298 689.211365,798.962097 688.547913,799.021057 
	C680.126648,799.769958 680.094116,799.767456 680.917236,790.947021 
	C681.085815,789.141541 681.456360,787.325378 681.976196,785.586670 
	C686.897400,769.124146 706.085144,756.116577 724.459351,756.732361 
	C741.252686,757.295166 755.485718,769.270386 759.429199,786.413330 
	C760.987488,793.187805 760.600220,799.964783 758.005310,806.916870 
z"/>
<path fill="#030303" opacity="1.000000" stroke="none" 
	d="
M236.103149,378.891968 
	C251.951477,394.172791 267.486328,409.268890 283.194611,424.182220 
	C285.530701,426.400085 285.864990,428.134308 284.574615,430.969727 
	C282.514771,435.495819 280.816589,440.195435 279.148926,444.886841 
	C278.462097,446.818878 277.672150,447.877472 275.362701,447.936584 
	C249.723282,448.592651 224.086685,449.360168 197.716843,450.118652 
	C200.283188,443.403290 202.650940,437.135590 205.078888,430.891296 
	C205.996017,428.532562 208.175903,429.338257 209.859421,429.304077 
	C223.686020,429.023407 237.514420,428.829559 251.342468,428.623840 
	C253.786087,428.587494 256.230682,428.618713 259.814392,428.618713 
	C256.811096,425.536041 254.730148,423.287903 252.530899,421.162170 
	C243.066483,412.014130 233.696823,402.760986 224.001053,393.863861 
	C221.135727,391.234589 220.825684,389.077942 222.339081,385.770477 
	C224.398865,381.268982 226.022369,376.567871 228.109970,371.246124 
	C230.941727,373.955627 233.393799,376.301819 236.103149,378.891968 
z"/>
<path fill="#030303" opacity="1.000000" stroke="none" 
	d="
M835.751953,693.670532 
	C835.984680,691.445679 834.266113,691.469666 833.219177,690.924011 
	C825.704895,687.007996 818.180786,683.108032 810.598267,679.326355 
	C802.332581,675.204041 795.872009,678.587524 795.144470,687.796570 
	C794.881348,691.127380 793.943481,691.674561 791.075745,691.103821 
	C788.798157,690.650574 786.421509,690.183289 784.139771,690.364319 
	C778.694336,690.796387 778.244019,687.730103 778.972961,683.637390 
	C780.665833,674.131958 784.758545,665.909058 792.544861,659.983337 
	C800.124939,654.214661 808.461182,654.656494 816.630920,658.440918 
	C825.218689,662.418884 833.647217,666.764343 841.981995,671.252563 
	C845.052979,672.906189 846.556091,673.218262 848.208923,669.452271 
	C851.045532,662.988953 851.350525,663.123352 857.482056,666.247314 
	C858.074341,666.549011 858.672913,666.838440 859.265198,667.140259 
	C866.007812,670.576782 866.198120,670.681274 862.453735,677.525696 
	C860.894104,680.376404 861.610535,681.271790 864.176025,682.604431 
	C868.398438,684.797913 875.106018,685.700562 876.052124,689.720398 
	C876.864380,693.171570 872.420227,697.858582 870.303406,702.000549 
	C867.151733,708.167419 867.152893,708.168091 860.928101,705.000305 
	C851.078796,699.987976 851.078735,699.987854 846.130554,709.670654 
	C842.692139,716.399048 842.692200,716.399170 836.119080,713.050842 
	C827.935608,708.882263 827.932007,708.880432 832.150879,700.647278 
	C833.287231,698.429504 834.452942,696.226807 835.751953,693.670532 
z"/>
<path fill="#030303" opacity="1.000000" stroke="none" 
	d="
M829.263672,491.375427 
	C857.293701,487.974213 884.888916,484.701202 912.463806,481.265564 
	C915.622253,480.872040 917.316345,480.985443 917.465881,484.830658 
	C917.646301,489.470306 918.340637,494.110138 919.113770,498.699158 
	C919.593567,501.547302 918.577209,502.473236 915.888000,502.783112 
	C898.530945,504.783112 881.185791,506.886261 863.838440,508.969940 
	C850.125916,510.617035 836.405945,512.208191 822.711975,513.997925 
	C819.348083,514.437561 817.233276,514.061707 817.426331,510.039551 
	C817.481445,508.892914 817.079163,507.731598 817.042603,506.572052 
	C816.902649,502.127197 813.855652,496.547760 816.449463,493.669098 
	C818.664429,491.210724 824.556946,492.065887 829.263672,491.375427 
z"/>
<path fill="#030303" opacity="1.000000" stroke="none" 
	d="
M851.414795,447.473602 
	C868.698486,443.067688 885.619629,438.890503 902.480835,434.483948 
	C905.533264,433.686249 907.237427,433.850616 907.512085,437.356415 
	C907.588928,438.337952 907.962158,439.293671 908.165588,440.268280 
	C909.136719,444.919159 912.943237,450.468018 910.648682,453.855194 
	C908.672180,456.772675 902.283325,456.775848 897.805786,457.911835 
	C870.778320,464.768799 843.726685,471.531158 816.722046,478.476379 
	C813.639099,479.269257 812.278809,479.071991 811.679932,475.558075 
	C810.902161,470.995270 809.478943,466.535248 808.209473,462.066223 
	C807.468994,459.459320 808.063599,458.385956 810.950806,457.700256 
	C824.352905,454.517303 837.678650,451.012939 851.414795,447.473602 
z"/>
<path fill="#030303" opacity="1.000000" stroke="none" 
	d="
M294.416687,253.505417 
	C315.757202,276.694489 336.811676,299.661102 358.012970,322.491394 
	C360.289093,324.942413 360.822327,326.300659 357.923523,328.580841 
	C354.268097,331.456146 350.856567,334.684265 347.614136,338.026337 
	C345.545990,340.158051 344.446869,339.747192 342.591583,337.718719 
	C321.113953,314.236145 299.562073,290.821136 277.941345,267.470245 
	C276.132507,265.516632 276.167084,264.502777 278.177185,262.810822 
	C281.997559,259.595123 285.730957,256.240540 289.193146,252.647461 
	C291.442902,250.312637 292.739868,251.173065 294.416687,253.505417 
z"/>
<path fill="#040404" opacity="1.000000" stroke="none" 
	d="
M612.041138,267.812500 
	C605.250671,267.924713 599.133789,265.299164 592.758362,263.854706 
	C589.683655,263.158112 591.877991,260.657501 592.206238,259.336975 
	C596.207153,243.242767 600.417725,227.200714 604.573608,211.145035 
	C605.945068,205.846329 607.532837,200.590790 608.604187,195.232040 
	C609.238831,192.057755 610.427246,191.608154 613.311707,192.596954 
	C616.750610,193.775879 620.334778,194.656418 623.925537,195.234787 
	C628.177124,195.919617 630.307190,197.465500 628.120239,202.009521 
	C627.724426,202.832001 627.818604,203.890335 627.558899,205.757370 
	C634.801270,200.578079 642.312500,200.279877 650.009766,201.122055 
	C653.010864,201.450409 654.963562,202.148102 653.434448,206.080399 
	C651.882568,210.071365 651.046509,214.365280 650.165649,218.582626 
	C649.699036,220.816483 648.997559,220.998962 646.813171,220.468796 
	C631.454224,216.741150 624.149414,221.239700 620.152100,236.627121 
	C617.483398,246.900162 614.842468,257.180450 612.041138,267.812500 
z"/>
<path fill="#050505" opacity="1.000000" stroke="none" 
	d="
M855.062012,525.907104 
	C866.305359,526.094360 866.310547,526.094482 866.101685,536.772949 
	C865.952393,544.406250 865.491089,552.048828 865.736511,559.668945 
	C865.889954,564.429504 864.031372,565.742371 859.754395,565.021179 
	C858.783691,564.857483 857.766541,564.970703 856.770752,564.954529 
	C848.018066,564.812073 848.052551,564.813110 848.332520,556.304626 
	C848.605408,548.010925 849.058716,539.710266 848.919556,531.421265 
	C848.845947,527.031616 849.886414,524.879089 855.062012,525.907104 
z"/>
<path fill="#050505" opacity="1.000000" stroke="none" 
	d="
M696.782104,279.376282 
	C700.027527,288.165710 696.075500,296.479462 687.945496,298.660309 
	C680.779663,300.582458 673.055847,295.567200 671.563171,287.892761 
	C670.501526,282.434143 672.707092,278.025238 676.818970,274.710480 
	C680.931641,271.395050 685.634277,271.143799 690.397583,273.459198 
	C692.989929,274.719299 695.110474,276.548309 696.782104,279.376282 
z"/>
<path fill="#050505" opacity="1.000000" stroke="none" 
	d="
M558.957275,838.246460 
	C553.272827,841.091492 548.028198,841.042114 543.171509,837.419617 
	C539.236755,834.484802 537.933472,830.230530 538.398010,825.511230 
	C538.972290,819.676941 543.159851,815.036377 548.483948,813.954407 
	C554.768188,812.677429 560.450500,815.152954 563.321228,820.418335 
	C566.155334,825.616516 565.478760,831.835205 561.559082,836.120117 
	C560.894836,836.846069 560.052368,837.408936 558.957275,838.246460 
z"/>
<path fill="#FDFDFD" opacity="1.000000" stroke="none" 
	d="
M225.007446,626.012085 
	C216.781677,627.695557 208.988663,629.401917 201.153809,630.887817 
	C199.864090,631.132446 197.563416,632.720337 197.102081,629.910522 
	C195.413879,619.628174 191.395172,609.654785 192.745590,598.960388 
	C194.448349,585.475647 203.424530,576.837952 218.253387,574.290588 
	C230.903580,572.117554 242.355637,577.756897 248.182007,589.184570 
	C252.792130,598.226685 253.179947,608.404114 255.681976,618.015198 
	C256.250427,620.198669 254.423782,619.885376 253.235474,620.135498 
	C243.967636,622.086548 234.696411,624.021545 225.007446,626.012085 
z"/>
<path fill="#FCFCFC" opacity="1.000000" stroke="none" 
	d="
M302.864746,736.838745 
	C298.944183,740.591858 294.878754,743.341248 289.736084,744.195068 
	C282.076324,745.466858 275.361664,742.446655 271.023041,735.611145 
	C266.749512,728.878174 266.853821,722.070068 271.214233,715.477905 
	C277.312073,706.258972 289.216248,702.171997 297.721497,706.420776 
	C307.745178,711.428040 313.648285,725.469666 302.864746,736.838745 
z"/>
<path fill="#FCFCFC" opacity="1.000000" stroke="none" 
	d="
M445.675629,236.012238 
	C441.891327,219.846985 454.298767,209.895004 467.046234,211.854324 
	C477.647461,213.483749 485.251129,226.046326 482.855530,237.988007 
	C480.853424,247.968170 470.396759,254.518417 460.017426,252.043732 
	C451.835480,250.092972 447.679810,244.225906 445.675629,236.012238 
z"/>
<path fill="#F9F9F9" opacity="1.000000" stroke="none" 
	d="
M561.411438,204.460449 
	C564.619995,207.087524 566.433105,210.174561 567.578491,213.745697 
	C568.284973,215.948288 567.769104,216.699173 565.361084,216.617706 
	C555.226257,216.274887 545.087158,216.004623 534.947571,215.884399 
	C532.052185,215.850052 531.626831,214.976364 532.510254,212.343613 
	C536.243225,201.218704 549.740662,197.335815 561.411438,204.460449 
z"/>
<path fill="#FAFAFA" opacity="1.000000" stroke="none" 
	d="
M335.552917,803.405640 
	C330.807251,797.923828 329.776886,792.078308 331.826508,785.519165 
	C332.644196,782.902344 333.570221,782.963074 335.538391,784.468872 
	C344.222351,791.113220 352.995789,797.640625 361.730133,804.205322 
	C356.910522,811.654358 343.935791,812.367432 335.552917,803.405640 
z"/>
<path fill="#FCFCFC" opacity="1.000000" stroke="none" 
	d="
M389.149597,250.675705 
	C393.156525,253.893402 395.745941,257.700928 397.450714,262.110382 
	C400.958923,271.184387 397.988708,280.014679 389.819122,284.969177 
	C381.565002,289.974945 372.443176,288.631561 365.944092,281.453125 
	C354.584534,268.906097 358.481323,252.096939 373.743958,247.680984 
	C379.274872,246.080704 384.211487,247.407776 389.149597,250.675705 
z"/>
<path fill="#F8F8F8" opacity="1.000000" stroke="none" 
	d="
M208.948273,512.843506 
	C203.438614,501.047516 208.259354,488.269623 219.083160,485.217682 
	C222.394806,484.283936 224.162537,484.305450 223.437088,488.958130 
	C221.982300,498.288422 221.143112,507.726013 220.370453,517.145630 
	C220.071518,520.789917 218.746048,520.713562 216.130325,519.353638 
	C213.259796,517.861267 210.925339,515.838867 208.948273,512.843506 
z"/>
<path fill="#F9F9F9" opacity="1.000000" stroke="none" 
	d="
M267.413422,341.645447 
	C273.149536,332.496399 280.724030,329.134277 288.882507,331.631195 
	C291.590515,332.459961 292.516174,333.119232 290.461426,335.835968 
	C284.445587,343.789734 278.590515,351.869965 272.866516,360.036682 
	C271.075226,362.592377 270.082245,362.016266 268.634369,359.909882 
	C264.694672,354.178467 264.374298,348.209412 267.413422,341.645447 
z"/>
<path fill="#F9F9F9" opacity="1.000000" stroke="none" 
	d="
M779.342163,715.071716 
	C785.523071,719.079224 786.575989,722.743774 782.707703,728.503418 
	C779.571533,733.172974 775.656738,737.313354 772.223206,741.792603 
	C770.891907,743.529419 770.001160,742.927734 768.620789,741.902161 
	C763.166687,737.849854 761.527710,732.617432 763.864075,726.134521 
	C766.588440,718.574829 771.973633,714.589600 779.342163,715.071716 
z"/>
</svg>