<svg xmlns="http://www.w3.org/2000/svg" viewBox="0 0 1080 1080" xml:space="preserve"><path fill="#FFF" d="M605 1081c-200.144 0-399.787-.011-599.43.086-3.622.001-4.675-.608-4.674-4.516C1.008 719.611 1.01 362.653.882 5.694.881 1.52 1.868.896 5.805.897c356.792.111 713.584.11 1070.377.002 3.91-.001 4.939.58 4.937 4.782-.129 356.792-.13 713.584.004 1070.376.002 4.382-1.098 5.047-5.179 5.044-156.815-.12-313.63-.101-470.944-.101z"/><path fill="#030303" d="M479.382 826.327c3.815-5.212 5.76-13.033 10.95-14.603 4.88-1.475 11.303 2.744 17.168 3.75 4.629.795 5.44 3.03 5.643 7.341 1.426 30.12 3.11 60.23 4.949 90.328.277 4.53-.82 5.664-4.928 3.862-.905-.397-1.903-.59-2.862-.86-4.62-1.304-10.865-1.228-13.434-4.264-2.957-3.494-1.487-9.846-1.738-14.965-.83-16.974-1.55-33.953-2.317-50.93-.044-.955-.148-1.907-.248-3.161-2.22.58-2.628 2.354-3.45 3.584-11.373 17.01-22.759 34.012-33.933 51.152-1.69 2.59-3.266 3.165-6.023 2.3-5.208-1.634-12.507-1.506-15.177-4.991-2.877-3.756-1.58-10.807-1.866-16.432-.834-16.473-1.535-32.953-2.34-49.428-.06-1.23.424-2.673-1.157-3.922-4.132 6.256-8.244 12.454-12.327 18.671-8.037 12.236-16.129 24.436-24.023 36.762-1.573 2.456-2.958 3.475-5.928 2.463-4.395-1.498-8.904-2.726-13.44-3.728-2.63-.58-3.491-1.109-1.752-3.755a18651.822 18651.822 0 0 0 52.154-79.776c1.272-1.955 2.618-2.19 4.57-1.623 2.871.835 5.767 1.584 8.65 2.379 11.603 3.2 11.64 3.2 12.26 15.439.817 16.14 1.549 32.285 2.378 48.424.107 2.08-.293 4.28 1.162 6.739a29389.073 29389.073 0 0 1 27.059-40.756zM249.569 560.407c11.677 9.283 17.37 21.596 20.283 35.46 2.665 12.686 5.182 25.403 7.91 38.075.601 2.793.176 4.065-2.918 4.693-29.317 5.944-58.605 12.029-87.89 18.123-1.94.404-3.124.276-3.515-2.01-3.053-17.838-9.064-35.218-9.588-53.42-1.008-35.058 31.133-58.78 63.606-47.429 4.275 1.494 8.185 3.634 12.112 6.508zM321.647 707.554c1.74 4.955 2.38 9.662 1.278 14.752 7.207-3.837 7.228-3.853 11.997 2.573 2.273 3.064 6.656 6.698 6.099 9.178-.677 3.01-5.493 5.165-8.635 7.536-23.896 18.037-47.82 36.037-71.968 54.223-3.707-4.905-7.177-9.783-10.97-14.395-1.926-2.342-1.256-3.426.886-4.994 8.305-6.084 16.48-12.344 25.39-19.055-7.808-1.8-13.921-5.264-18.705-10.974-14.92-17.81-11.506-41.234 8.114-55.132 19.016-13.471 42.441-8.501 54.097 11.497.834 1.43 1.498 2.96 2.417 4.791zM494.972 257.972c-12.151 10.943-25.43 14.46-41.349 7.7 2.452 9.367 4.568 18.353 7.213 27.18 1.318 4.397.65 6.502-4.207 7.174-3.92.542-7.78 1.747-11.565 2.97-2.777.898-3.967.415-4.744-2.626-7.761-30.41-15.637-60.79-23.632-91.138-.634-2.407-.28-3.168 2.053-3.694 4.208-.948 8.432-1.952 12.497-3.369 3.721-1.296 5.442-.258 5.786 3.563.07.77.442 1.511.918 3.055 6.637-10.769 16.371-14.928 27.757-15.766 9.917-.73 18.706 2.236 26.16 8.924 12.713 11.407 20.067 38.438 3.113 56.027zM860.37 630.402c-1.58 2.581-2.847 4.93-4.352 7.117-5.896 8.564-13.195 14.61-24.488 12.947-12.41-1.829-20.731-9.056-23.11-21.064-4.578-23.096 3.405-42.8 18.677-59.998 1.607-1.81 2.895-1.496 4.577-.056 2.906 2.488 5.88 4.93 9.033 7.087 2.575 1.762 2.712 2.803.346 5.152-8.367 8.305-13.522 18.42-15.582 30.06-.645 3.643-.906 7.283.568 10.815 2.495 5.976 8.483 7.387 13.338 3.12 2.41-2.118 4.087-4.807 5.621-7.584 3.695-6.688 7.155-13.517 11.11-20.046 7.667-12.66 17.332-17.422 28.846-14.644 12.582 3.035 21.096 13.116 21.885 27.098.996 17.65-4.464 33.388-15.414 47.278-1.957 2.482-3.46 2.837-5.98.672-3.395-2.916-8.924-4.742-10.243-8.269-1.216-3.25 4.292-6.538 6.397-10.132 3.58-6.109 6.025-12.563 7.09-19.55.486-3.185.361-6.348-.893-9.337-2.904-6.919-10.434-8.033-15.09-2.137-5.083 6.436-8.065 14.12-12.336 21.47zM670.53 786.192c11.409 30.489 22.438 60.75 33.707 90.922 1.326 3.551.8 4.91-2.76 5.916-4.142 1.17-8.241 2.646-12.153 4.438-3.129 1.433-4.208.452-5.264-2.491-5.55-15.47-11.288-30.872-16.966-46.296-.4-1.086-.837-2.16-1.556-4.01-5.162 10.402-10.405 20.081-14.793 30.134-2.736 6.266-6.527 10.26-13.275 11.884-4.776 1.15-9.319 3.271-14.043 4.987-.869-1.821.476-2.98 1.02-4.206 4.654-10.468 9.302-20.941 14.21-31.29 1.474-3.11 1.392-4.645-1.91-6.587-12.75-7.503-25.258-15.417-37.851-23.187-1.387-.856-2.734-1.775-4.529-2.944 7.705-2.867 14.87-5.447 21.957-8.22 2.264-.885 3.83.15 5.535 1.176 8.545 5.14 17.129 10.22 25.608 15.468 2.315 1.432 3.036 1.124 4.743-1.26 5.588-7.799 3.553-15.2-.137-22.684-1.855-3.764-1.485-5.936 3.092-7.005 5.142-1.202 9.786-4.072 15.365-4.745zM805.27 271.72c12.37 13.535 24.438 26.87 36.688 40.035 2.258 2.426 2.223 3.762-.352 5.777-3.53 2.76-6.686 8.176-10.123 8.275-3.553.102-6.237-5.778-9.281-9.053-7.596-8.171-15.151-16.383-22.553-24.73-1.895-2.137-3.018-2.21-5.053-.208a248.279 248.279 0 0 1-13.64 12.465c-2.222 1.883-2.082 3.014-.172 5.054 8.534 9.117 16.841 18.446 25.359 27.578 1.834 1.967 2.235 3.167-.113 5.04-3.634 2.902-6.848 8.403-10.503 8.633-3.815.24-6.48-5.902-9.64-9.25-6.17-6.539-12.246-13.173-18.121-19.975-2.081-2.409-3.313-2.148-5.427-.137-6.635 6.308-13.53 12.343-20.175 18.64-2.045 1.939-3.286 2.61-5.398-.044-3.207-4.03-6.839-7.731-10.407-11.46-1.514-1.58-1.986-2.64-.055-4.395 23.039-20.922 46.005-41.924 69.113-63.018 3.331 3.643 6.472 7.078 9.853 10.772z"/><path fill="#040404" d="M572.594 229.187c-12.786-.334-25.107-.584-37.42-1.03-3.156-.116-3.796.65-2.53 3.598 2.592 6.027 7.294 9.505 13.382 10.935 8.059 1.894 15.974 1.334 22.795-3.94 2.277-1.761 3.278-1.006 4.69.784 1.75 2.22 3.526 4.48 5.623 6.35 3.115 2.775 3.02 4.752-.493 7.152-15.247 10.413-31.334 10.187-47.438 3.06-14.144-6.26-20.975-18.018-21.09-33.38-.167-22.494 18.066-39.469 40.774-38.294 23.993 1.241 39.281 18.56 37.194 41.891-.268 2.99-1.403 3.58-4.04 3.355-3.646-.311-7.318-.327-11.447-.48z"/><path fill="#030303" d="M351.904 781.125c5.874 4.396 11.456 8.591 17.489 13.126 2.935-6.119 2.3-11.802-1.044-17.007-5.151-8.02-12.568-12.88-22.277-13.027-3.5-.053-4.146-1.251-4.19-4.246-.046-3.15-.513-6.303-.936-9.436-.304-2.256.364-3.214 2.789-3.548 15.965-2.196 37.23 11.612 44.447 29.014 6.55 15.79 1.321 33.581-13.04 44.369-15.752 11.833-38.148 8.864-52.675-6.983-13.35-14.562-13.256-35.464.083-50.293 1.689-1.878 2.692-2.129 4.757-.523 8.013 6.23 16.189 12.252 24.597 18.554zM358.564 302.503c-24.312-14.627-26.84-45.438-5.31-63.27 9.986-8.271 21.415-12.777 34.636-10.624 15.1 2.46 24.77 11.724 29.698 25.719 4.84 13.746 1.538 26.271-7.995 37.077-13.185 14.946-33.185 19.311-51.029 11.098z"/><path fill="#040404" d="M200.263 476.278c9.578-9.953 21.139-12.601 34.075-11.014 2.958.363 4.113 1.492 3.73 4.77-1.841 15.71-3.469 31.448-5.066 47.187-.495 4.88.071 5.18 4.682 3.239 10.748-4.524 15.746-21.123 9.24-32.85-2.304-4.156-1.554-6.032 2.042-8.014 1.155-.636 2.148-1.567 3.215-2.363 6.406-4.775 6.406-4.775 10.222 2.104 11.861 21.378.624 53.848-21.307 61.57-15.378 5.414-33.384.182-43.166-12.543-10.217-13.292-10.506-33.973-.653-48.27.848-1.23 1.827-2.372 2.986-3.816z"/><path fill="#030303" d="M284.767 364.903c-.92 1.903-3.484 3.083-2.532 4.833.816 1.5 3.254 1.322 5.094 1.415 11.74.588 23.612-11.262 23.578-24.2-.01-4.114 1.104-5.592 5.013-5.536 1.985.029 4.089-.012 5.94-.622 5.291-1.743 6.418.545 6.532 5.409.385 16.331-12.854 35.603-29.43 42.284-14.575 5.876-30.9 1.627-42.035-10.942-13.52-15.26-11.812-38.38 3.987-53.992 14.303-14.133 36.01-14.578 51.02-1.212 2.002 1.782 1.814 2.82.39 4.753-9.18 12.456-18.238 25-27.557 37.81zM787.264 743.28c-1.288 1.558-2.337 2.85-3.4 4.13-3.754 4.52-3.194 6.19 2.652 7.523 4.964 1.132 9.187-.462 12.812-3.84 6.04-5.63 9.861-12.533 11.134-20.674.449-2.874 1.388-3.583 4.057-2.562 1.533.588 3.228.75 4.853 1.098 8.886 1.9 8.986 1.93 6.253 10.468-3.85 12.026-10.64 22.144-20.549 30-10.809 8.57-22.863 9.41-34.161 1.626-12.749-8.784-23.938-19.585-35.985-29.289-1.69-1.361-1.227-2.329-.09-3.63 1.86-2.13 3.626-4.342 5.431-6.52 5.176-6.248 5.176-6.248 11.898-2.547-1.374-13.85 6.014-23.045 16.444-30.187 8.962-6.137 19.078-5.22 26.666 1.565 7.32 6.546 8.824 15.53 4.24 25.496-2.956 6.428-7.519 11.731-12.255 17.344zM819.946 414.997c4.504-.204 8.148-1.789 11.739-3.563 9.527-4.708 19.104-9.318 28.568-14.149 2.463-1.257 3.616-.994 4.758 1.604 2.332 5.302 7.756 11.09 6.752 15.506-1.048 4.61-9.286 5.794-14.412 8.376-15.711 7.915-31.594 15.49-47.306 23.403-2.88 1.451-4.2 1.283-5.423-1.81-1.399-3.54-3.029-7.057-5.077-10.252-2.324-3.625-1.562-5.606 2.377-6.81.751-.23 1.413-.75 2.845-1.535-12.54-4.728-19.187-13.768-21.869-25.925-2.514-11.397 1.193-20.658 10.178-27.831 2.577-2.057 5.449-3.834 8.395-5.326 11.7-5.926 23.507-11.643 35.214-17.556 2.183-1.103 3.34-1.16 4.449 1.381a157.15 157.15 0 0 0 6.637 13.373c1.401 2.524.798 3.587-1.683 4.768-9.743 4.638-19.387 9.484-29.064 14.26-1.637.808-3.303 1.572-4.877 2.49-7.198 4.203-10.137 9.608-8.647 15.769 2.038 8.422 7.598 13.222 16.446 13.827zM758.005 806.917c-7.28 16.254-19.217 26.005-36.647 28.52-5.234.755-10.218-.524-15.058-2.558-2.208-.928-2.688-2.027-1.382-4.108 1.054-1.68 1.792-3.556 2.686-5.337 1.337-2.668 2.109-5.99 4.19-7.812 2.201-1.924 5.181.813 7.931 1.011 8.791.634 17.847-6.387 19.834-15.657 2.05-9.57-6.063-22.048-16.004-24.616-9.386-2.425-20.055 3.654-22.876 13.033-.096.318-.176.656-.343.936-1.395 2.334 1.566 6.056-1.917 7.444-2.392.953-5.236.777-7.879 1.092-.66.078-1.329.097-1.992.156-8.421.749-8.454.746-7.63-8.074a27.9 27.9 0 0 1 1.058-5.36c4.921-16.463 24.11-29.47 42.483-28.855 16.794.563 31.027 12.538 34.97 29.681 1.558 6.775 1.171 13.552-1.424 20.504zM236.103 378.892c15.848 15.28 31.383 30.377 47.092 45.29 2.336 2.218 2.67 3.952 1.38 6.788-2.06 4.526-3.758 9.225-5.426 13.917-.687 1.932-1.477 2.99-3.786 3.05-25.64.656-51.276 1.423-77.646 2.182 2.566-6.716 4.934-12.983 7.362-19.228.917-2.358 3.097-1.553 4.78-1.587 13.827-.28 27.655-.474 41.483-.68 2.444-.037 4.889-.005 8.472-.005-3.003-3.083-5.084-5.331-7.283-7.457-9.465-9.148-18.834-18.401-28.53-27.298-2.865-2.63-3.175-4.786-1.662-8.094 2.06-4.501 3.683-9.202 5.771-14.524 2.832 2.71 5.284 5.056 7.993 7.646zM835.752 693.67c.233-2.224-1.486-2.2-2.533-2.746-7.514-3.916-15.038-7.816-22.62-11.598-8.266-4.122-14.727-.738-15.455 8.47-.263 3.331-1.2 3.879-4.068 3.308-2.278-.453-4.654-.92-6.936-.74-5.446.432-5.896-2.634-5.167-6.727 1.693-9.505 5.786-17.728 13.572-23.654 7.58-5.768 15.916-5.327 24.086-1.542 8.588 3.978 17.016 8.323 25.351 12.812 3.071 1.653 4.574 1.965 6.227-1.8 2.837-6.464 3.142-6.33 9.273-3.206.592.302 1.19.591 1.783.893 6.743 3.437 6.933 3.541 3.189 10.386-1.56 2.85-.843 3.746 1.722 5.078 4.222 2.194 10.93 3.097 11.876 7.116.812 3.452-3.632 8.139-5.749 12.28-3.151 6.167-3.15 6.168-9.375 3-9.85-5.012-9.85-5.012-14.797 4.67-3.439 6.729-3.439 6.73-10.012 3.38-8.183-4.168-8.187-4.17-3.968-12.403 1.136-2.217 2.302-4.42 3.601-6.976zM829.264 491.375c28.03-3.4 55.625-6.674 83.2-10.11 3.158-.393 4.852-.28 5.002 3.566.18 4.64.875 9.28 1.648 13.868.48 2.848-.537 3.774-3.226 4.084-17.357 2-34.702 4.103-52.05 6.187-13.712 1.647-27.432 3.238-41.126 5.028-3.364.44-5.479.064-5.286-3.958.055-1.147-.347-2.308-.383-3.468-.14-4.445-3.187-10.024-.594-12.903 2.215-2.458 8.108-1.603 12.815-2.294zM851.415 447.474c17.283-4.406 34.205-8.583 51.066-12.99 3.052-.798 4.756-.633 5.031 2.872.077.982.45 1.938.654 2.912.97 4.651 4.777 10.2 2.483 13.587-1.977 2.918-8.366 2.92-12.843 4.057-27.028 6.857-54.08 13.62-81.084 20.564-3.083.793-4.443.596-5.042-2.918-.778-4.563-2.201-9.023-3.47-13.492-.741-2.607-.146-3.68 2.74-4.366 13.403-3.183 26.729-6.687 40.465-10.226zM294.417 253.505c21.34 23.19 42.395 46.156 63.596 68.986 2.276 2.451 2.81 3.81-.09 6.09-3.655 2.875-7.066 6.103-10.309 9.445-2.068 2.132-3.167 1.721-5.022-.307a15623.076 15623.076 0 0 0-64.65-70.249c-1.81-1.953-1.775-2.967.235-4.66 3.82-3.215 7.554-6.57 11.016-10.163 2.25-2.334 3.547-1.474 5.224.858z"/><path fill="#040404" d="M612.041 267.813c-6.79.112-12.907-2.514-19.283-3.958-3.074-.697-.88-3.197-.552-4.518 4.001-16.094 8.212-32.136 12.368-48.192 1.371-5.299 2.959-10.554 4.03-15.913.635-3.174 1.823-3.624 4.708-2.635a64.48 64.48 0 0 0 10.614 2.638c4.251.685 6.381 2.23 4.194 6.775-.396.822-.301 1.88-.561 3.747 7.242-5.179 14.754-5.477 22.45-4.635 3.002.328 4.955 1.026 3.425 4.958-1.551 3.991-2.387 8.285-3.268 12.503-.467 2.233-1.168 2.416-3.353 1.886-15.359-3.728-22.664.77-26.66 16.158-2.67 10.273-5.31 20.553-8.112 31.185z"/><path fill="#050505" d="M855.062 525.907c11.243.187 11.249.187 11.04 10.866-.15 7.633-.61 15.276-.365 22.896.153 4.76-1.706 6.073-5.983 5.352-.97-.164-1.987-.05-2.983-.066-8.753-.143-8.718-.142-8.438-8.65.272-8.294.726-16.595.587-24.884-.074-4.39.966-6.542 6.142-5.514zM696.782 279.376c3.246 8.79-.707 17.103-8.837 19.284-7.165 1.922-14.89-3.093-16.382-10.767-1.061-5.459 1.144-9.868 5.256-13.183 4.113-3.315 8.815-3.566 13.579-1.25 2.592 1.26 4.712 3.088 6.384 5.916zM558.957 838.246c-5.684 2.845-10.929 2.796-15.785-.826-3.935-2.935-5.239-7.19-4.774-11.909.574-5.834 4.762-10.475 10.086-11.557 6.284-1.277 11.966 1.199 14.837 6.464 2.834 5.199 2.158 11.417-1.762 15.702-.664.726-1.507 1.289-2.602 2.126z"/><path fill="#FDFDFD" d="M225.007 626.012c-8.225 1.684-16.018 3.39-23.853 4.876-1.29.244-3.59 1.832-4.052-.977-1.688-10.283-5.707-20.256-4.356-30.95 1.702-13.485 10.679-22.123 25.507-24.67 12.65-2.173 24.103 3.466 29.929 14.894 4.61 9.042 4.998 19.22 7.5 28.83.568 2.184-1.258 1.87-2.447 2.12a5874.195 5874.195 0 0 1-28.228 5.877z"/><path fill="#FCFCFC" d="M302.865 736.839c-3.92 3.753-7.986 6.502-13.129 7.356-7.66 1.272-14.374-1.748-18.713-8.584-4.273-6.733-4.17-13.54.191-20.133 6.098-9.219 18.002-13.306 26.507-9.057 10.024 5.007 15.927 19.049 5.144 30.418zM445.676 236.012c-3.785-16.165 8.623-26.117 21.37-24.158 10.601 1.63 18.205 14.192 15.81 26.134-2.003 9.98-12.46 16.53-22.839 14.056-8.182-1.951-12.337-7.818-14.341-16.032z"/><path fill="#F9F9F9" d="M561.411 204.46c3.209 2.628 5.022 5.715 6.167 9.286.707 2.202.191 2.953-2.217 2.872-10.135-.343-20.274-.613-30.413-.734-2.896-.034-3.321-.908-2.438-3.54 3.733-11.125 17.23-15.008 28.901-7.884z"/><path fill="#FAFAFA" d="M335.553 803.406c-4.746-5.482-5.776-11.328-3.726-17.887.817-2.617 1.743-2.556 3.711-1.05 8.684 6.644 17.458 13.172 26.192 19.736-4.82 7.45-17.794 8.162-26.177-.8z"/><path fill="#FCFCFC" d="M389.15 250.676c4.007 3.217 6.596 7.025 8.3 11.434 3.509 9.074.539 17.905-7.63 22.86-8.255 5.005-17.377 3.662-23.876-3.517-11.36-12.547-7.463-29.356 7.8-33.772 5.53-1.6 10.467-.273 15.406 2.995z"/><path fill="#F8F8F8" d="M208.948 512.844c-5.51-11.796-.689-24.574 10.135-27.626 3.312-.934 5.08-.913 4.354 3.74-1.455 9.33-2.294 18.768-3.067 28.188-.298 3.644-1.624 3.568-4.24 2.208-2.87-1.493-5.205-3.515-7.182-6.51z"/><path fill="#F9F9F9" d="M267.413 341.645c5.737-9.149 13.311-12.51 21.47-10.014 2.708.829 3.633 1.488 1.578 4.205a826.087 826.087 0 0 0-17.594 24.2c-1.792 2.556-2.785 1.98-4.233-.126-3.94-5.732-4.26-11.7-1.22-18.265zM779.342 715.072c6.181 4.007 7.234 7.672 3.366 13.431-3.136 4.67-7.051 8.81-10.485 13.29-1.331 1.736-2.222 1.135-3.602.11-5.454-4.053-7.093-9.286-4.757-15.768 2.724-7.56 8.11-11.545 15.478-11.063z"/></svg>